<svg xmlns="http://www.w3.org/2000/svg" xmlns:xlink="http://www.w3.org/1999/xlink" width="37" height="37" viewBox="0 0 37 37">
    <defs>
        <path id="a" d="M0 .012h36.988v36.984H0z"/>
    </defs>
    <g fill="none" fill-rule="evenodd">
        <g>
            <mask id="b" fill="#fff">
                <use xlink:href="#a"/>
            </mask>
            <path fill="#A32828" d="M18.494.012c-5.023 0-5.652.021-7.625.111-1.968.09-3.313.402-4.49.86a9.065 9.065 0 0 0-3.275 2.133A9.065 9.065 0 0 0 .971 6.39c-.457 1.177-.77 2.521-.86 4.49C.021 12.853 0 13.483 0 18.506s.021 5.652.111 7.625c.09 1.968.403 3.313.86 4.49a9.065 9.065 0 0 0 2.133 3.275 9.066 9.066 0 0 0 3.276 2.133c1.176.457 2.52.77 4.489.86 1.973.09 2.602.111 7.625.111s5.653-.021 7.625-.111c1.969-.09 3.313-.403 4.49-.86a9.066 9.066 0 0 0 3.275-2.133 9.066 9.066 0 0 0 2.133-3.276c.458-1.176.77-2.52.86-4.489.09-1.973.111-2.602.111-7.625s-.021-5.653-.111-7.625c-.09-1.969-.402-3.313-.86-4.49a9.066 9.066 0 0 0-2.133-3.275A9.065 9.065 0 0 0 30.61.983c-1.177-.458-2.521-.77-4.49-.86-1.972-.09-2.602-.111-7.625-.111zm0 3.332c4.938 0 5.523.019 7.473.108 1.804.082 2.783.383 3.434.637a5.73 5.73 0 0 1 2.127 1.383 5.73 5.73 0 0 1 1.383 2.127c.254.651.555 1.63.637 3.434.09 1.95.108 2.535.108 7.473s-.019 5.523-.108 7.473c-.082 1.803-.383 2.782-.637 3.434a5.73 5.73 0 0 1-1.383 2.127 5.73 5.73 0 0 1-2.127 1.383c-.651.253-1.63.555-3.434.637-1.95.089-2.534.108-7.473.108-4.938 0-5.523-.02-7.473-.108-1.803-.082-2.782-.384-3.434-.637A5.73 5.73 0 0 1 5.46 31.54a5.73 5.73 0 0 1-1.383-2.127c-.253-.652-.555-1.63-.637-3.434-.089-1.95-.108-2.535-.108-7.473s.02-5.523.108-7.473c.082-1.804.384-2.783.637-3.434A5.73 5.73 0 0 1 5.46 5.472a5.73 5.73 0 0 1 2.127-1.383c.652-.254 1.63-.555 3.434-.637 1.95-.09 2.535-.108 7.473-.108z" mask="url(#b)"/>
        </g>
        <path fill="#A32828" d="M18.5 24.667a6.167 6.167 0 1 1 0-12.334 6.167 6.167 0 0 1 0 12.334zM18.5 9A9.5 9.5 0 0 0 9 18.5a9.5 9.5 0 0 0 9.5 9.5 9.5 9.5 0 0 0 9.5-9.5A9.5 9.5 0 0 0 18.5 9zM31 8.5a2.5 2.5 0 1 1-5 0 2.5 2.5 0 0 1 5 0"/>
    </g>
</svg>
