<svg xmlns="http://www.w3.org/2000/svg" width="37" height="37" viewBox="0 0 37 37">
    <g fill="none" fill-rule="nonzero">
        <circle cx="18.5" cy="18.5" r="18.5" fill="#A32828"/>
        <path fill="#FFF" d="M15.133 28.26c8.21 0 12.699-6.825 12.699-12.741 0-.195 0-.39-.01-.576a9.16 9.16 0 0 0 2.231-2.322 9.035 9.035 0 0 1-2.563.706 4.473 4.473 0 0 0 1.962-2.48 9.02 9.02 0 0 1-2.833 1.087 4.435 4.435 0 0 0-3.258-1.412c-2.462 0-4.46 2.006-4.46 4.477 0 .353.036.696.12 1.021a12.647 12.647 0 0 1-9.2-4.68c-.38.659-.602 1.43-.602 2.247 0 1.551.787 2.926 1.99 3.724a4.373 4.373 0 0 1-2.018-.557v.056a4.48 4.48 0 0 0 3.582 4.393 4.435 4.435 0 0 1-2.018.074 4.458 4.458 0 0 0 4.165 3.111 8.952 8.952 0 0 1-6.608 1.848 12.404 12.404 0 0 0 6.821 2.025"/>
    </g>
</svg>
